<svg id="Content" xmlns="http://www.w3.org/2000/svg" viewBox="0 0 916.2 148.2"><style>.st0{fill:#084a77}.st1{fill:#cf3028}</style><path class="st0" d="M61 148.2H0V5.2h61v16H16v110h45zm107.4-95.9l-38-38.3c-6.2-6.2-14.6-9.7-23.4-9.7H78.4v17.3h21.2c8.7 0 17.1 3.5 23.3 9.6l33.4 33.2 12.1-12.1zm92-30.6H281V4.4h-27.7c-8.7 0-17.1 3.5-23.3 9.6L122.8 120.9c-6.2 6.2-14.6 9.7-23.3 9.7H78.4v17.3H107c8.8 0 17.2-3.5 23.4-9.7l49.7-49.9 49.7 50c6.2 6.2 14.6 9.7 23.4 9.7H281v-17.3h-20.6c-8.7 0-17.1-3.5-23.3-9.6L192 76.3l45-44.8c6.3-6.4 14.6-9.8 23.4-9.8zM334.8 84c16.6 0 26 9.1 26 22.8 0 13.6-9.8 22.7-26 22.7h-16.1V84h16.1zm0 34.8c9.1 0 13.7-3.8 13.7-12 0-8.3-4.3-12.2-13.7-12.2h-4v24.2h4zm38.8 10.7V84h33.6v11h-21.4v6.9H404v10.4h-18.3v6.3h22v10.8h-34.1zm62.8 0L419 84h13.5l9.2 28.6c.5 1.6 1 3.1 1.4 4.7.4-1.6.8-3.1 1.3-4.7l9.8-28.6h12.9l-17.4 45.5h-13.3zm44 0V84h30.7v6.4h-23.9v13H508v6.4h-20.8V123h24.5v6.4h-31.3zm78.7 0l-11.6-17.3c-.4-.7-.9-1.3-1.2-1.9-.4.6-.8 1.2-1.3 1.9l-11.6 17.3h-8.3l15.7-23.2L525.7 84h8.4l11 16.1c.4.6.9 1.3 1.3 1.9.3-.7.7-1.3 1.2-1.9l11-16.1h8.4l-15.3 22.3 15.8 23.2h-8.4zm60.1-4.9c-5.1 3.7-11.3 5.5-18.7 5.5-13.4 0-21.4-8.4-21.4-23.3 0-15.1 8-23.6 22.1-23.6 5.5 0 11.8 1.4 16.2 4l-2.2 5.2c-4.4-1.9-9.4-2.8-13.8-2.8-10.1 0-15.4 5.9-15.4 17.2 0 10.7 5.4 16.9 14.7 16.9 6.3 0 11-1.4 15.8-4.4l2.7 5.3zm47.9 4.9v-20h-24.7v20h-6.9V84h6.9v19.1h24.7V84h6.9v45.5h-6.9zm28.3 0H688L706.9 84h9.2l18.9 45.5h-7.4l-4.4-10.7h-23.5l-4.3 10.7zm17.8-35.2c-.8-2.2-1.3-4-1.7-5.4-.4 1.4-.9 3.2-1.7 5.4l-7.5 18.1h18.3l-7.4-18.1zm68.5 35.2l-25.8-33.8v33.8H749V84h6.3l25.8 33.9V84h6.9v45.5h-6.3zm64.8-5.5c-6.9 4.3-13.4 6.2-21.2 6.2-12.9 0-20.9-8.4-20.9-23.3 0-14.6 8.2-23.6 21.8-23.6 6 0 12.7 1.2 18 3.4l-1.9 5.7c-5-1.7-10.3-2.6-15.5-2.6-9.8 0-15.4 6.2-15.4 17.1 0 11.1 5.3 17 14.2 17 5.4 0 10.1-.7 14.3-3.5v-8.1h-15.3V106h21.8v18zm18.8 5.5V84H896v6.4h-23.9v13h20.8v6.4h-20.8V123h24.5v6.4h-31.3z"/><path id="Icon_3_" class="st1" d="M444.8 48.3c-7.9 5.6-17.3 11.5-27.4 17.7l-.4.2c-.1.1-.2.3-.1.4.1.1.3.2.4.1l.3-.2c8.6-4.5 18.4-9.8 28.3-15.2.1 0 .1-.1.2-.1-.5-.9-1-1.9-1.3-2.9zm52-42.1C484.3-7.6 404 4.8 369.9 12.3l-.8.2c-.2 0-.3.2-.2.3 0 .2.2.3.4.2l.8-.2c28.3-5 87.1-12 99.8.5 3.9 3.8 2.9 8.8-1.5 14.6 2.4 1.6 4.1 4 4.9 7 17.3-11.5 29-22.6 23.5-28.7z"/><path class="st0" d="M449.9 44.6c.2 4.8 3.2 8.8 7.2 8.8 7.7 0 11-9.5 10.8-15.9-.2-4.9-3.3-8.8-7.3-8.8-6.7.1-11 9.5-10.7 15.9zm-4.1-.2c-.3-8.3 6.2-16.7 15.6-16.7 6.3 0 10.4 4.2 10.6 10.6.3 8.7-5.7 16.7-15.6 16.7-6.3 0-10.4-4.2-10.6-10.6zm-89.1-2.2c-.3.1-.8.3-1.3.4-.5.1-1.5.3-2.9.5-1 .2-1.7.4-2 .6-.4.3-.6.6-.7 1-.1.4.1.8.4 1 .4.3 1 .4 1.9.4.7 0 1.3-.1 2-.3.6-.2 1.2-.5 1.6-.8.3-.3.5-.6.7-1 0-.3.1-.9.3-1.8zm8.2-5.1c0 .8-.2 1.4-.4 2.6l-1.4 7.8c-.1.7.1 1.2.8 1.6v.3H356l-.1-2c-1.2.7-2.5 1.3-3.8 1.6-1.3.3-2.3.5-3.8.5-2.6 0-4-.3-5-1.2-1-.9-1.5-1.5-1.5-2.8 0-.7.4-1.7 1-2.3.5-.7 1.3-1.1 2.1-1.5.8-.4 1.8-.7 3.2-.9 1.4-.2 3.4-.5 6-.7 1.4-.1 2.2-.4 2.6-.6.5-.2.8-.4.8-.9.1-.8-.1-1.3-1.2-1.5-2.9-.6-8.2.4-11 1.1l1.5-4c3.6-.5 7-.9 10.6-.9 5.7.1 7.5 1.7 7.5 3.8zm22.9 12.3l2.7-15.5h7.6l-2.7 15.5h-7.6zm3.2-19.1c.2-1.3 2.2-2.3 4.5-2.3s3.9 1 3.7 2.3c-.2 1.3-2.2 2.3-4.5 2.3s-3.9-1.1-3.7-2.3zm34.1 11.9c-.3.1-.8.2-1.3.4-.5.1-1.5.3-2.9.5-1 .2-1.7.4-2 .6-.4.3-.6.6-.7 1-.1.4.1.8.4 1 .4.3 1 .4 1.9.4.7 0 1.3-.1 1.9-.3.6-.2 1.2-.5 1.6-.8.3-.3.5-.6.7-1 .1-.2.2-.8.4-1.8zm8.2-5.1c0 .8-.2 1.4-.4 2.6l-1.4 7.8c-.1.7.1 1.2.8 1.6v.3h-7.9l-.1-2c-1.2.7-2.6 1.3-3.8 1.6-1.3.3-2.3.5-3.8.5-2.6 0-4-.3-5-1.1-1-.9-1.5-1.5-1.5-2.8 0-.7.4-1.7 1-2.3.5-.7 1.3-1.1 2.1-1.5.8-.4 1.8-.7 3.2-.9 1.4-.2 3.4-.5 6-.7 1.4-.1 2.2-.4 2.6-.6.6-.2.8-.5.9-.9.1-.8-.1-1.2-1.2-1.5-2.9-.6-8.2.4-11 1l1.5-4c3.6-.5 7-.9 10.6-.9 5.6.1 7.4 1.8 7.4 3.8zm-92.6 6.7c-2.5.5-3.9.7-6.3.7-3.6 0-6.5-1.8-6.3-5.1.1-2.2 2.7-6.8 9.3-6.8 2.1 0 3.7.4 5.9 1.6l1-5.4c-3-1.1-4.9-1.3-7.5-1.3-8.7.1-17 4-18 12-1 8.1 8.9 10.2 13.3 10.2 2.5 0 5.2-.1 7.7-.4l.9-5.5zm61.6-10l.5-3.2 7.9-1.7-.8 4.9h3.9l-.7 3.1h-3.8L407 49.4s-7.6-.1-7.7 0l2.3-12.4h-2.9l.6-3.1h3zM441 49.4h-7.8l3.9-21.7 7.5.2zm-63.2-11.9c-1 0-1.9.3-2.7.9-.8.6-1.3 1.5-1.5 2.7-.2 1.4-.1 2.3.4 2.9.5.6 1.3.9 2.3.9.7 0 1.4-.1 1.9-.4.6-.3 1.1-.7 1.5-1.3.4-.6.7-1.3.8-2 .2-1.2 0-2.1-.5-2.7-.5-.7-1.2-1-2.2-1zM364 54.7l3.7-20.8h6.7l-.5 2.7c.6-.8 1.5-1.4 2.8-2 1.3-.5 2.7-.9 4.3-.9 1.7 0 2.8.1 4.1.8 1.3.7 2.2 1.7 2.7 2.9.5 1.3.6 2.7.3 4.2-.5 2.6-1.7 4.6-3.7 6.1s-3.9 1.9-6.5 1.9c-.9 0-1.7-.1-2.3-.3-.6-.2-1.1-.4-1.5-.6-.4-.2-.8-.6-1.2-1.1l-1.2 7.1H364zm137.6-15.3c0-1.3-.7-2.1-2-2.1-3.1 0-6.4 6.1-7 8.5 5.2.1 9.2-3 9-6.4zm.7 9.5l.6.4c-1.5 3.1-4.6 5.6-8.2 5.6-3 0-5.4-2-5.5-5.7-.2-6.6 6-12.8 11.1-12.8 2.2 0 4.2 1 4.3 3.3.2 5.3-7.2 6.9-12.1 7-.2.6-.2 1.1-.2 2 .1 2.2 1.4 4 4.1 4 2.3 0 4.7-1.9 5.9-3.8z"/><path class="st0" d="M471.9 39.2c.5-.1 1.4-.2 1.7-.2.6 0 1.1.1 1.1.7 0 .3-.6 2.7-.7 3.2l-1.2 5.2c-.5 2.1-1 4.4-1.5 6.1h3l1.7-8.3c5.2-5.4 7.2-7.2 8.4-7.2.6 0 .9.3 1 1 0 1-.6 3.1-.8 3.7l-1.7 6c-.4 1.4-.7 2.6-.7 3.4.1 1.3.9 1.9 2 1.9 2.2 0 3.8-2.3 5.2-4.6l-.4-.7c-.6.9-1.9 2.9-2.9 2.9-.3 0-.6-.2-.6-.8 0-.7.3-1.8.5-2.5l1.9-7.1c.5-1.9.8-3.2.8-3.9 0-1.3-.8-1.9-2-1.9-2 0-4.7 1.5-10.3 7.9h-.1l.7-3.2c.4-1.7.8-3.5 1.1-4.8-1.9.7-4.7 1.5-6.5 1.8l.3 1.4z"/><path id="Trademark_3_" class="st0" d="M505 33.6c0-1.5 1.3-2.7 2.7-2.7 1.5 0 2.7 1.1 2.7 2.7s-1.3 2.7-2.7 2.7c-1.4 0-2.7-1.1-2.7-2.7zm2.7 2.3c1.2 0 2.2-1 2.2-2.3 0-1.3-1-2.2-2.2-2.2-1.2 0-2.2 1-2.2 2.2 0 1.3 1 2.3 2.2 2.3zm-.5-.7h-.5v-3.1h1.2c.7 0 1.1.3 1.1.9 0 .6-.3.8-.8.9l.9 1.4h-.5l-.8-1.4h-.5v1.3zm.5-1.8c.4 0 .8 0 .8-.5 0-.4-.3-.5-.7-.5h-.6v1h.5z"/><path class="st0" d="M912.8 90.5h-1l-2-4.5-.2 4.5h-1.3l.3-6.5h1.3l2.2 4.7c.1.2.1.3.2.4 0-.1.1-.3.1-.4l2.2-4.7h1.4l.3 6.5H915l-.2-4.5-2 4.5zm-6.9-5.3c-.8-.3-1.6-.5-2.2-.5-.7 0-1.1.3-1.1.8 0 .6.6.7 1.5 1 1.6.5 2.4.8 2.4 2.2 0 1.2-.9 1.9-2.4 1.9-1.1 0-2.1-.3-2.9-1l.5-.9c.8.5 1.4.8 2.4.8.7 0 1.2-.3 1.2-.8 0-.8-.6-.9-1.8-1.3-1.3-.4-2-.8-2-1.9 0-1.2.8-1.9 2.3-1.9.8 0 1.6.2 2.5.6l-.4 1z"/></svg>