<?xml version="1.0" encoding="UTF-8"?>
<svg width="1440px" height="490px" viewBox="0 0 1440 490" version="1.1" xmlns="http://www.w3.org/2000/svg" xmlns:xlink="http://www.w3.org/1999/xlink">
    <!-- Generator: Sketch 45 (43475) - http://www.bohemiancoding.com/sketch -->
    <title>Retail Discounts Hero</title>
    <desc>Created with Sketch.</desc>
    <defs>
        <linearGradient x1="-2.99320982%" y1="6.98384353%" x2="102.174809%" y2="100%" id="linearGradient-1">
            <stop stop-color="#5B007A" offset="0%"></stop>
            <stop stop-color="#B62ED9" offset="100%"></stop>
        </linearGradient>
        <rect id="path-2" x="0" y="0" width="1440.5" height="490.417631"></rect>
        <linearGradient x1="73.1875251%" y1="-30.8522776%" x2="25.6483482%" y2="33.6754218%" id="linearGradient-4">
            <stop stop-color="#18002F" offset="0%"></stop>
            <stop stop-color="#C86DD7" offset="100%"></stop>
        </linearGradient>
        <linearGradient x1="50%" y1="0%" x2="50%" y2="100%" id="linearGradient-5">
            <stop stop-color="#000000" stop-opacity="0" offset="0%"></stop>
            <stop stop-color="#000000" offset="100%"></stop>
        </linearGradient>
    </defs>
    <g id="Page-1" stroke="none" stroke-width="1" fill="none" fill-rule="evenodd">
        <g id="Retail-Discounts-Hero">
            <g id="Group-9">
                <mask id="mask-3" fill="white">
                    <use xlink:href="#path-2"></use>
                </mask>
                <use id="Mask" fill="url(#linearGradient-1)" opacity="0.901119403" xlink:href="#path-2"></use>
                <g id="Page-1" mask="url(#mask-3)" stroke="url(#linearGradient-4)" stroke-width="1.44" opacity="0.202308769">
                    <g transform="translate(262.090097, 187.090097) scale(-1, 1) rotate(225.000000) translate(-262.090097, -187.090097) translate(-793.909903, -306.409903)">
                        <path d="M2111.08034,583.051307 C2029.47248,630.010905 1876.77791,668.03514 1750.80366,668.353232 C1661.87795,668.577767 1548.62321,618.552395 1351.35204,529.557148 L1340.07653,525.018939 C1297.60906,507.92401 1143.88223,448.88555 948.753302,406.894521 C873.986775,390.805684 838.745024,387.087893 814.043118,405.732981 C782.021916,429.90078 778.566701,507.116546 783.393924,641.148445 C786.591437,729.968094 792.175928,790.657466 796.253081,834.971575 C803.018104,908.501215 805.816828,938.932981 780.458431,963.836278 C750.922104,992.844546 699.114038,993.699508 622.077147,966.448663 C537.697924,936.601265 417.574505,871.052713 265.044051,771.62232 L254.862685,764.985567" id="Stroke-3"></path>
                        <path d="M250.200736,684.715973 C268.766757,702.287321 259.702577,750.463153 271.114863,758.362199 C275.669988,761.514333 288.778209,769.915705 292.394667,771.86168 C403.204843,842.650835 493.430577,891.038249 564.674225,919.914099 C591.97618,930.979672 616.610421,938.361998 638.44018,944.269011 C709.315272,963.445212 756.379616,960.904793 785.934658,930.573781 C810.093808,905.781312 809.012613,876.062015 806.635714,807.600258 C805.999378,789.257429 805.292499,768.126618 805.283861,743.367254 C805.273783,710.00789 805.933153,671.269747 806.403926,624.337496 C806.969718,582.571003 808.23519,546.266768 810.291043,514.463321 C814.26454,452.99527 821.804106,414.585295 840.626389,397.336358 C862.519493,377.27209 893.211877,377.076341 961.150037,387.481262 C1138.14773,414.589613 1258.63664,426.141781 1325.91255,449.992927 C1360.45894,462.24163 1442.13199,499.507779 1525.0917,540.289771 C1651.88944,602.621419 1673.37777,644.558651 1794.47872,633.998283 C1904.45965,624.409463 2030.38351,573.349212 2103.85721,524.119789" id="Stroke-5"></path>
                        <path d="M218.987478,645.160867 C256.119519,680.305001 264.543045,735.942323 287.366178,751.738976 C296.477867,758.044683 312.512942,768.209235 319.747298,772.101185 C430.96922,841.715846 518.034873,884.261018 585.307903,906.246792 C611.232092,914.720131 634.301409,918.511327 654.803789,922.088064 C719.149965,933.317721 761.860738,928.99685 791.411462,897.311428 C814.398717,872.664331 815.145908,843.526524 817.018922,780.229085 C817.535764,762.719628 818.228247,742.718691 820.148771,719.567059 C822.838079,687.16485 826.506366,651.056365 829.414505,607.525252 C832.013114,568.598557 835.335879,534.329536 838.507478,502.872967 C844.400059,444.418875 850.928975,407.288465 867.210235,388.939879 C886.297417,367.429085 912.390047,363.3529 973.547347,368.069587 C1132.29719,380.312532 1258.01662,371.761469 1343.22941,393.224767 C1428.44364,414.688064 1456.62812,432.803478 1503.5125,457.190055 C1586.89979,500.562842 1609.08947,518.34721 1664.52551,537.87029 C1692.41629,547.692281 1720.53598,554.635612 1752.09648,552.810541 C1777.97172,551.30644 1816.95662,544.915813 1843.27528,538.752599 C1917.09594,521.392833 1982.24258,479.989051 2047.58069,428.488365" id="Stroke-7"></path>
                        <path d="M187.77422,605.605617 C240.826163,656.557918 260.091864,715.22647 303.618932,745.114169 C317.285746,754.573449 336.247676,766.502621 347.09849,772.340546 C458.732159,840.779274 543.143054,875.641299 605.940142,892.579341 C698.6162,917.577633 767.366335,897.120428 796.888265,864.048931 C818.730981,839.578872 821.46348,810.904529 827.40069,752.856328 C829.109582,736.152897 831.264772,717.27032 835.01368,695.768161 C840.508911,664.252579 847.178915,630.837081 852.425083,590.714303 C857.14433,554.620211 862.394817,522.400797 866.723913,491.28247 C874.433361,435.852412 880.045206,399.967023 893.792641,380.543257 C910.065263,357.555709 931.50487,349.649466 985.944658,348.656328 C1126.29116,346.098638 1269.46086,334.20401 1337.95042,344.69673 C1479.03835,366.312596 1497.49352,392.993466 1611.98062,450.566688 C1637.53193,463.417031 1685.75377,494.755575 1737.45962,494.613081 C1775.73188,494.506571 1804.07472,488.944997 1829.59868,482.544295 C1901.46283,464.426002 1958.62791,421.217299 2015.83043,367.445349" id="Stroke-9"></path>
                        <path d="M156.561106,566.050654 C230.826627,636.338922 274.222685,706.897784 319.87183,738.49109 C338.093769,751.102504 359.981114,764.797734 374.449826,772.581633 C486.496681,839.844428 562.980738,866.798772 622.433466,873.077131 C683.207813,879.495106 772.903748,865.277399 802.365212,830.786721 C823.090742,806.521048 828.008664,778.220931 837.784043,725.485299 C840.733932,709.563424 844.418055,691.804964 849.878734,671.96955 C858.322415,641.303173 867.868885,610.610889 875.434366,573.902203 C882.291527,540.634956 889.404951,510.475223 894.939053,479.692261 C904.361711,427.287675 909.142865,392.621399 920.376631,372.146922 C933.814537,347.653834 950.540656,335.999575 998.342112,329.244797 C1120.09668,312.039039 1240.68511,279.688646 1365.30463,295.984746 C1535.90586,318.29437 1589.26301,424.085165 1725.22283,431.281818 C1811.48227,435.848813 1935.01339,362.444395 1984.08032,306.402621" id="Stroke-11"></path>
                        <path d="M125.347848,526.495548 C218.17939,614.356603 279.063153,692.375515 336.123144,731.867866 C358.901647,747.632854 383.715848,763.091264 401.802457,772.821138 C514.261058,838.908 607.453958,873.505188 703.89476,855.5481 C746.369427,847.638979 778.477009,833.467331 807.842016,797.522929 C827.477713,773.487548 834.824363,745.522795 848.165811,698.112686 C852.428682,682.963732 857.692126,666.352418 864.743643,648.169356 C876.302776,618.368017 888.586065,590.383113 898.444944,557.091397 C907.461615,526.646678 916.358793,498.543749 923.155488,468.101908 C934.184821,418.71128 938.217345,385.256921 946.959038,363.751883 C957.534874,337.731665 969.499995,322.461808 1010.73942,309.831682 C1113.72498,278.291632 1374.41373,183.45846 1588.4542,329.089925 C1692.11065,399.617121 1773.2722,364.752218 1797.20676,357.876536 C1865.15932,338.241188 1911.39729,303.672787 1952.33006,245.359749" id="Stroke-13"></path>
                        <path d="M94.1345898,486.940298 C205.532152,592.3727 283.90362,677.854541 352.375899,725.243059 C379.710966,744.16162 407.450582,761.384649 429.153649,773.060499 C542.023997,837.972867 616.836594,856.698557 667.839882,851.578859 C688.407048,849.514859 719.666918,839.765979 736.560039,832.731971 C770.991254,818.397678 784.092021,801.688783 813.318819,764.260432 C831.892038,740.474055 841.929436,712.87921 858.549019,670.741369 C864.211252,656.382608 871.075612,640.944348 879.608553,624.370457 C894.468856,595.507562 909.333477,570.159511 921.455522,540.279009 C932.659056,512.664013 943.24641,486.597737 951.371923,456.511411 C963.904275,410.110273 967.264471,377.886541 973.542884,355.35526 C981.222099,327.800716 988.443498,309.118206 1023.13673,290.419863 C1104.98357,246.30726 1332.19273,166.446005 1467.16206,225.098725 C1587.82967,277.536415 1591.33384,306.403628 1676.27453,306.403628 C1778.4913,306.403628 1887.78262,244.899595 1920.57981,184.316733" id="Stroke-15"></path>
                        <path d="M62.9213317,447.385192 C192.886354,570.39038 288.744088,663.332271 368.628653,718.619836 C400.518845,740.69197 431.185315,759.678179 456.506281,773.300003 C569.788375,837.036438 641.557503,849.585962 688.472121,837.911551 C707.707589,833.125777 733.373472,818.894485 749.206993,808.253514 C776.452801,789.940911 789.754542,769.943485 818.794182,730.998079 C836.330837,707.479418 849.310927,680.385459 868.930788,643.370196 C876.096039,629.853443 884.546919,615.614146 894.473463,600.571702 C912.809135,572.791183 930.114002,549.951886 944.466101,523.466765 C957.88817,498.695886 970.063483,474.625962 979.588358,444.921058 C993.521512,401.473426 996.282804,370.517744 1000.12673,346.958782 C1004.87189,317.871351 1007.51801,296.009359 1035.53404,271.006748 C1101.00316,212.581443 1241.28056,166.607786 1302.48537,160.064589 C1381.86029,152.051836 1426.11008,166.063719 1466.80099,178.319618 C1522.94823,195.231752 1564.4108,231.252438 1596.65804,248.389108 C1619.1558,260.345627 1642.55049,267.45592 1671.92845,265.930229 C1693.57681,264.797476 1716.28621,260.4032 1738.63137,253.053978 C1802.67233,231.900137 1864.16796,186.127987 1888.83099,123.2753" id="Stroke-17"></path>
                        <path d="M31.7080736,407.830085 C180.239117,548.406621 293.584556,648.810002 384.881407,711.996613 C421.326724,737.22088 454.920049,757.971709 483.857472,773.539508 C597.552753,836.101449 662.294368,835.586123 705.198057,817.457755 C723.070155,809.907027 745.778459,798.142492 759.874295,783.449806 C780.948226,761.484183 795.471771,738.23129 824.270986,697.735726 C840.79699,674.499173 856.90117,648.142152 879.313996,615.997583 C888.080164,603.425031 898.065734,590.381818 909.338372,576.771508 C931.289063,550.273433 950.92764,529.777366 967.476679,506.65596 C983.148957,484.757985 996.799935,462.612445 1007.80479,433.330705 C1023.04517,392.781885 1025.27666,363.159023 1026.70914,338.562303 C1028.49289,307.954939 1026.90205,283.030052 1047.93279,251.593633 C1091.82698,185.978872 1237.64856,119.907843 1307.35751,110.311826 C1357.02622,103.475006 1411.9411,109.956311 1451.91938,121.148546 C1517.14088,139.406454 1550.74716,171.025667 1583.08365,190.492613 C1604.43112,203.344395 1626.45379,211.637818 1655.39553,210.172579 C1676.19881,209.113232 1698.17829,204.618203 1719.72731,197.030052 C1760.13317,182.769165 1799.12095,157.56073 1825.97948,123.742219 C1849.36265,94.2992736 1859.72685,56.4535163 1854.60162,19.2093992 C1854.43462,17.9946042 1854.26042,16.8949556 1854.07902,15.9406795" id="Stroke-19"></path>
                        <path d="M0.494815542,368.274979 C234.297679,589.557657 397.103077,712.394444 511.210104,773.780452 C625.31713,835.165021 692.737955,812.322164 731.751649,787.800289 C788.699346,752.004138 785.626137,687.980519 924.203282,552.972753 C974.421948,504.048469 1010.32883,480.601774 1036.02123,421.740351 C1073.09856,336.798259 1035.64835,300.115481 1060.3301,232.181958 C1104.53526,110.502393 1308.6313,27.326772 1454.17502,65.3769143 C1553.93859,91.459023 1617.69926,183.784428 1691.73279,171.252617 C1765.76632,158.720807 1874.17513,117.234185 1852.00849,0.806737211" id="Stroke-21"></path>
                    </g>
                </g>
                <path d="M1071.41579,488.718171 C1108.98499,488.718171 1483.53975,49.5247201 1483.53975,49.5247201 L1554.93676,44.5079841 L1553.24166,488.364175 L1596.64804,119.92164" id="Path-251" fill="url(#linearGradient-5)" opacity="0.0788246269" mask="url(#mask-3)"></path>
                <path d="M837.273798,491 C874.832791,491 1360.72288,27.0909962 1360.72288,27.0909962 L1523.77367,27.0909962 L1523.77367,491" id="Path-251" fill-opacity="0.258463542" fill="#B002D0" style="mix-blend-mode: multiply;" opacity="0.263759328" mask="url(#mask-3)"></path>
                <path d="M1061.56769,490.652777 C1371.93834,395.555193 1458.32354,150.292294 1458.32354,150.292294 L1538.02523,153.3963 L1539.09259,493.162567" id="Path-251-Copy-5" fill-opacity="0.621744792" fill="#5F1888" opacity="0.148262593" style="mix-blend-mode: multiply;" mask="url(#mask-3)"></path>
            </g>
        </g>
    </g>
</svg>