<svg xmlns="http://www.w3.org/2000/svg" width="1440" height="250" viewBox="0 0 1440 250"><title>all products hero</title><g transform="translate(-254 -353.023)"><path fill="#D8D8D8" d="M245 347.465h1460v253H245z"/><path opacity=".901" fill="#265169" d="M243.7 345.725h1461.963v490H243.7z"/><linearGradient id="a" gradientUnits="userSpaceOnUse" x1="1087.003" y1="874.109" x2="1087.555" y2="872.076" gradientTransform="matrix(1440 0 0 -487.7443 -1564773.5 426355.844)"><stop offset="0" stop-color="#002b63"/><stop offset=".21" stop-color="#003a7a"/><stop offset="1" stop-color="#56b2a8"/></linearGradient><path fill="url(#a)" d="M243.962 346.879h1460v487.744h-1460z"/><path opacity=".3" fill="#0A5C8F" stroke="#979797" d="M1293.067 842.96c310.37-95.097 406.756-340.36 406.756-340.36l79.702 3.104 1.065 339.766"/><linearGradient id="b" gradientUnits="userSpaceOnUse" x1="1085.826" y1="873.072" x2="1086.435" y2="872.365" gradientTransform="matrix(525.2322 0 0 -444.2102 -568901.688 388390.531)"><stop offset="0" stop-color="#c6dede"/><stop offset="1" stop-color="#f5ecbc"/></linearGradient><path opacity=".28" fill="url(#b)" stroke="#979797" d="M1283.067 904.039c37.567 0 422.124-439.194 422.124-439.194l71.396-5.017-1.694 443.854 43.405-368.44"/><path opacity=".24" fill="#76B7A6" stroke="#979797" d="M1090.773 892.321c37.56 0 523.447-463.909 523.447-463.909h173.053v463.909"/><path fill="none" stroke="#0C7288" d="M33.522 624.908c-.976-116.854 79.896-207.952 140.947-182.896 21.828 8.959 35.066 16.079 74.105 30.794 35.706 13.459 94.227 22.484 111.484-.601 19.407-25.959-26.001-75.723-6.759-96.663 19.719-21.459 35.747 5.073 82.593-2.178 8.23-1.274 52.513-8.827 86.999-42.062 35.406-34.119 26.674-62.722 55.855-75.858 25.169-11.329 59.896-2.758 80.265 15.973 27.322 25.126 12.767 53.778 32.571 105.651 5.154 13.499 32.089 84.044 89.854 101.646 65.389 19.925 132.552-39.49 144.03-49.646 38.724-34.252 30.579-52.368 85.072-121.072 39.156-49.368 57.718-77.483 91.156-85.522 82.323-19.793 93.438 34.221 144.957 15.047 99.991-37.218 89.402 35.465 132.225 37.878 64.11 3.611 44.98-32.818 136.359-107.026 89.477-72.664 80.148-72.857 108.806-90.354 19.239-11.747 95.209-55.477 194.152-53.15 32.824.771 101.3 2.381 171.771 38.355 24.745 12.631 49.85 29.558 84.597 26.462 30.289-2.698 86.33-32.446 66.313-42.914"/><path fill="none" stroke="#0C7288" d="M34.048 625.333c9.745-101.882 89.995-182.708 151.153-161.908 22.199 7.551 36.323 13.764 73.537 25.349 35.722 11.121 91.296 16.599 109.395-5.799 20.697-25.417-17.154-71.963 1.961-92.023 8.324-8.722 15.931-9.456 25.259-8.177 13.935 1.912 21.171 8.829 55.783 6.408 16.688-1.167 30.657-1.71 56.434-15.095 9.349-4.854 19.535-10.897 29.564-19.622 34.27-29.815 28.538-57.132 58.679-70.829 25.656-11.65 58.38-4.801 78.73 10.072 26.896 19.657 16.877 42.021 36.316 84.263.755 1.639 1.433 3.382 2.467 4.972 8.227 12.655 37.674 76.388 92.69 94.256 65.429 21.25 125.821-25.95 141.082-34.648 40.997-23.369 35.331-43.592 90.933-105.893 40.438-45.312 61.385-73.215 93.571-83.125 11.625-3.579 21.596-5.711 30.234-6.638 52.694-5.648 64.684 23.419 105.994 4.868 18.916-8.495 34.048-12.837 46.774-14.34 46.821-5.528 49.323 36.264 81.09 34.166 46.842-3.092 43.024-24.853 81.632-70.347 11.017-12.984 26.784-22.995 46.659-36.205 86.559-57.533 80.619-58.639 111.126-78.794 15.96-10.544 71.688-43.468 143.19-52.107 16.586-2.004 33.646-2.956 51.068-2.458 34.76.996 86.573 5.137 147.022 32.071 7.789 3.471 15.591 7.16 23.412 10.998 25.854 12.683 51.478 25.84 83.907 19.93 28.535-5.2 78.237-35.74 57.686-47.476"/><path fill="none" stroke="#0C7288" d="M34.521 625.766c20.465-86.91 100.143-157.519 161.36-140.92 22.586 6.125 37.693 11.315 72.966 19.904 35.849 8.729 88.295 10.646 107.304-11 21.91-24.947-8.305-68.203 10.682-87.385 8.316-8.375 15.88-9.409 24.893-8.69 14.767 1.179 30.792 5.055 54.598 7.331 7.678.734 30.143 1.757 55.186-9.896 8.801-4.095 19.053-9.044 29.812-17.48 32.819-25.734 30.403-51.541 61.502-65.798 26.144-11.971 57.07-6.849 77.197 4.17 27.762 15.2 20.138 32.485 42.116 68.524.873 1.432 46.122 73.091 98.407 91.163 58.16 20.104 105.178-9.122 129.898-17.585 7.547-2.584 14.604-6.427 20.957-11.25 24.766-18.797 35.022-33.103 84.063-81.53 41.775-41.25 65.062-69.005 95.991-80.727 11.443-4.337 21.048-7.286 29.104-8.881 50.502-9.998 59.862 11.062 98.396-9.708 17.149-9.245 31.415-14.91 44.257-18.096 44.873-11.133 49.688 26.444 79.245 19.872 43.348-9.638 36.641-30.837 72.634-76.479 10.643-13.494 27.298-19.105 47.59-29.6 82.495-42.666 81.11-44.37 113.447-67.233 16.148-11.417 73.598-46.065 143.044-53.806 17.107-1.907 34.218-2.735 51.325-2.173 40.34 1.324 86.604 8.298 145.645 36.55 7.848 3.755 15.647 7.547 23.459 11.231 26.971 12.72 53.129 22.081 83.217 13.397 26.812-7.737 70.146-39.033 49.057-52.038"/><path fill="none" stroke="#0C7288" d="M206.492 506.277c22.989 4.678 39.169 8.709 72.397 14.459 36.083 6.246 85.348 4.738 105.214-16.197 23.181-24.432.543-64.445 19.403-82.748 8.308-8.028 15.844-9.417 24.525-9.202 15.626.388 31.497 3.91 53.415 8.252 8.652 1.715 29.592 5.203 53.937-4.696 8.24-3.35 18.512-7.207 30.06-15.338 31.088-21.892 32.267-45.949 64.326-60.768 26.63-12.292 56.007-9 75.662-1.731 28.971 10.713 37.271 39.412 47.92 52.785 10.65 13.373 52.089 64.884 101.656 83.097 57.884 21.27 115.513.337 124.659-2.456s16.368-5.558 23.343-9.669c24.769-14.595 40.227-25.354 89.83-68.065 43.17-37.169 68.729-64.853 98.407-78.33 11.263-5.114 20.509-8.887 27.978-11.124 48.377-14.491 55.029-1.184 90.794-24.283 15.389-9.938 28.765-16.895 41.74-21.852 42.876-16.377 50.011 16.439 77.403 5.578 39.846-15.802 30.196-36.883 63.633-82.61 10.253-14.021 27.456-15.178 48.522-22.997 77.059-28.6 81.625-30.058 115.768-55.672 16.349-12.265 75.511-48.619 142.896-55.504 17.628-1.801 34.791-2.5 51.581-1.89 45.922 1.67 86.622 11.516 144.269 41.031 7.896 4.044 15.705 7.928 23.501 11.463 28.099 12.74 54.8 18.266 82.529 6.864 25.101-10.32 60.646-43.627 39.021-57.9"/><path fill="none" stroke="#0C7288" d="M35.239 626.668c41.906-56.964 120.546-107.332 181.772-98.941 23.401 3.207 40.727 5.918 71.827 9.016 36.407 3.624 82.413-1.161 103.125-21.398 24.466-23.902 9.392-60.685 28.124-78.109 8.298-7.681 15.878-8.667 24.157-9.715 16.375-2.071 32.171 3.269 52.231 9.174 9.629 2.835 29 8.611 52.688.504 7.663-2.623 17.911-5.408 30.307-13.195 29.121-18.296 34.132-40.358 67.149-55.739 27.117-12.612 55.166-11.372 74.128-7.632 30.501 6.014 27.517 13.486 53.722 37.046 1.145 1.028 58.036 56.738 104.905 75.031 52.665 20.559 85.982 11.295 113.221 9.646a139.037 139.037 0 0 0 46.063-10.832c19.777-8.412 41.005-18.87 81.456-48.828 44.629-33.053 72.384-60.755 100.826-75.933 11.076-5.911 19.972-10.52 26.848-13.367 46.271-19.162 50.218-13.302 83.195-38.857 13.637-10.568 26.121-18.792 39.222-25.609 40.938-21.304 50.336 6.48 75.562-8.717 36.345-21.897 23.691-42.982 54.634-88.74 9.848-14.564 26.694-15.693 49.453-16.393 65.953-29.044 82.167-15.71 118.088-44.112 16.562-13.095 77.433-51.131 142.749-57.202 18.148-1.687 35.361-2.258 51.836-1.606 51.502 2.038 86.614 14.783 142.889 45.511 7.949 4.34 15.769 8.305 23.547 11.697 29.231 12.745 56.47 14.387 81.841.331 23.392-12.958 52.766-46.954 30.604-62.497"/><path fill="none" stroke="#0C7288" d="M35.432 627.148C88.06 585.156 166.208 544.8 227.41 549.193c23.82 1.709 42.336 2.931 71.257 3.57 36.79.812 79.486-7.053 101.036-26.6 25.762-23.367 18.24-56.926 36.844-73.471 8.291-7.333 14.46-9.574 23.791-10.227 9.331-.652 32.745 2.956 51.048 10.097 10.556 4.118 28.447 11.213 50.654 7.808 13.771-2.111 19.245-3.811 32.552-11.187 26.959-14.943 34.784-36.738 68.76-52.681 27.604-12.932 54.773-10.093 72.597-13.533 31.65-6.112 31.7 3.762 59.521 21.307 1.297.819 63.964 48.651 108.153 66.965 54.019 22.39 82.338 18.818 110.861 22.051 13.625 1.543 27.417.561 40.754-2.622 22.483-5.358 47.718-11.528 92.036-39.264 46.144-28.878 76.015-56.706 103.24-73.535 10.884-6.725 19.429-12.182 25.722-15.61 44.116-24.03 45.472-25.285 75.595-53.433 11.92-11.138 23.526-20.611 36.705-29.365 39.135-25.995 50.682-3.438 73.716-23.011 32.874-27.934 17.128-49.131 45.636-94.872 9.424-15.121 26.875-12.925 50.384-9.789 60.073-18.14 82.734-1.331 120.409-32.551 16.789-13.912 79.356-53.606 142.603-58.901 18.672-1.562 35.935-2.009 52.093-1.322 57.081 2.425 86.584 18.098 141.51 49.991 7.995 4.643 15.828 8.676 23.59 11.931 30.376 12.733 58.114 10.445 81.152-6.202 21.66-15.653 45.86-48.912 23.162-65.724"/><path fill="none" stroke="#0C7288" d="M35.459 627.654c63.349-27.021 141.005-57.428 202.185-56.967 24.237.185 44.339 2.928 70.688-1.875 36.647-6.682 76.567-12.934 98.945-31.797 27.067-22.818 27.088-53.166 45.565-68.833 8.282-6.986 15.754-9.712 23.422-10.739 18.234-2.44 33.179 2.84 49.865 11.019 11.382 5.577 31.38 16.329 53.871 12.002 6.471-1.243 12.838-3.158 27.12-10.011 24.658-11.83 37.862-29.175 72.797-45.68 28.092-13.253 54.493-13.738 71.061-19.435 32.378-11.134 38.94-6.721 65.325 5.569 13.626 6.346 69.869 40.618 111.402 58.898 55.994 24.646 78.643 27.076 109.722 35.458a97.056 97.056 0 0 0 33 3.051c24.828-1.988 55.113-3.018 103.839-28.168 47.709-24.626 79.616-52.696 105.66-71.138 10.673-7.558 31.751-23.778 37.042-28.783 31.354-29.654 28.396-26.206 55.545-57.078 10.25-11.655 20.991-22.375 34.188-33.122 37.5-30.542 51.062-13.33 71.874-37.306 29.453-33.933 10.496-55.316 36.637-101.003 8.979-15.688 27.057-10.156 51.314-3.183 54.189-7.236 83.324 13.074 122.729-20.991 17.025-14.719 81.238-56.677 142.453-60.599 19.21-1.231 36.507-1.755 52.349-1.038 62.66 2.834 86.526 21.452 140.132 54.469 8.041 4.952 15.895 9.044 23.636 12.164 31.521 12.703 59.717 6.453 80.463-12.735 19.891-18.396 36.355-54.527 13.121-72.607"/><path fill="none" stroke="#0C7288" d="M35.459 627.654c74.069-12.047 151.111-30.791 212.279-34.191 24.65-1.37 45.53-3.639 70.118-7.322 37.518-5.619 73.655-18.801 96.855-36.996 28.38-22.256 35.937-49.404 54.286-64.191 8.273-6.64 15.709-9.878 23.055-11.251 19.067-3.563 33.445 2.821 48.681 11.938 12.062 7.219 30.672 15.932 52.266 16.824 21.594.895 67.45-31.076 103.345-48.141 28.578-13.574 52.819-20.155 69.525-25.337 35.296-10.946 40.468-16.718 71.128-10.169 1.625.347 3.258.712 4.923.909 35.419 4.187 70.823 31.729 109.729 49.923 65.322 30.548 75.243 46.428 123.391 55.331 26.104 4.824 65.5 10.104 126.08-14.812 49.305-20.277 83.183-48.72 108.077-68.739 10.449-8.403 18.279-15.582 23.463-20.096 39.396-34.315 36.395-48.879 60.396-82.582 8.645-12.138 18.522-24.103 31.668-36.878 36.036-35.023 51.482-23.215 70.03-51.601 26.088-39.925 3.798-61.531 27.639-107.134 8.506-16.272 25.793-3.105 52.245 3.42 47.039 11.605 83.942 27.502 125.051-9.431 17.271-15.516 83.21-58.456 142.307-62.296 19.721-1.282 37.078-1.499 52.604-.756 68.236 3.268 86.441 24.845 138.754 58.951 8.076 5.266 15.957 9.407 23.679 12.397 32.681 12.655 61.262 2.43 79.772-19.268 18.062-21.171 27.849-60.03 4.076-79.378"/><path fill="none" stroke="#0C7288" d="M35.459 627.654c84.79 2.926 160.861-4.463 222.044-11.666 25.053-2.949 47.007-7.178 69.549-12.769 37.698-9.345 70.776-24.622 94.766-42.192 29.735-21.635 44.785-45.648 63.006-59.559 8.264-6.291 15.649-10.064 22.688-11.763 19.86-4.787 33.53 2.817 47.498 12.86 12.557 9.027 26.336 21.328 47.692 21.301 5.26-.008 14.871.576 31.296-4.625 19.883-6.297 41.59-17.992 78.443-35.619 29.064-13.895 51.711-23.396 67.991-31.238 36.253-17.46 44.657-27.423 76.931-25.91 1.781.084 3.558.189 5.332.232 40.001.968 76.263 24.477 112.565 42.535 65.162 32.41 67.924 54.148 120.44 70.324 24.234 7.468 70.688 19.404 131.938.367 50.909-15.822 86.711-44.768 110.494-66.341 10.211-9.263 17.668-17.3 22.334-22.339 36.716-39.642 32.167-60.559 52.796-97.157 7.104-12.605 16.116-25.812 29.15-40.635 34.728-39.49 51.935-33.106 68.188-65.894 22.767-45.928-2.969-67.766 18.64-113.265 8.007-16.863 26.168-2.164 53.177 10.025 40.894 18.452 84.581 41.95 127.372 2.129 17.521-16.307 85.138-60.836 142.157-63.995 20.245-1.122 37.646-1.219 52.857-.471 73.811 3.819 86.329 28.269 137.377 63.43 8.11 5.587 16.024 9.767 23.724 12.629 33.842 12.588 62.746-1.599 79.082-25.8 16.177-23.958 20.724-64.435-3.586-85.054"/><path fill="none" stroke="#0C7288" d="M35.432 627.148c339.022 63.533 431.085-112.564 486.596-129.039 41.134-12.207 51.289 35.396 92.757 40.283 9.367 1.104 37.234 3.281 112.812-33.071 97.207-46.758 100.113-73.934 149.188-78.787 46.9-4.639 85.963 16.058 121.146 34.7 64.923 34.397 61.714 60.64 117.493 85.323 23.067 10.207 75.846 28.828 137.797 15.547 75.497-16.184 120.404-70.266 134.116-88.524 44.997-59.915 20.128-88.34 71.829-156.123 33.549-43.985 52.409-43.013 66.345-80.189 19.477-51.951-9.798-74.006 9.642-119.396 17.785-41.532 107.107 104.036 183.8 30.318 17.783-17.093 87.065-63.188 142.01-65.693 131.466-5.994 129.956 24.743 189.113 67.722 82.437 59.892 145.915-54.894 90.803-103.442"/></g></svg>